<svg width="82" height="24" viewBox="0 0 82 24" fill="none" xmlns="http://www.w3.org/2000/svg">
<g clip-path="url(#clip0_6255_2)">
<circle cx="12" cy="12" r="12" fill="#008AFF"/>
<circle cx="12" cy="11.9995" r="10.7565" fill="black" stroke="#008AFF" stroke-width="0.4"/>
<path d="M14.7039 16.2703C13.7523 16.2703 13.001 16.0532 12.45 15.6191C11.9074 15.1767 11.6361 14.5798 11.6361 13.8285C11.6361 13.7534 11.6445 13.6323 11.6612 13.4654L11.6862 13.2901C11.6945 13.2316 11.7154 13.1857 11.7488 13.1523C11.7905 13.1189 11.8365 13.1023 11.8865 13.1023H13.7773C13.8358 13.1023 13.8775 13.1189 13.9025 13.1523C13.9359 13.1857 13.9485 13.2316 13.9401 13.2901L13.9276 13.3652C13.9025 13.5989 13.9944 13.8076 14.2031 13.9913C14.4201 14.1666 14.729 14.2543 15.1297 14.2543C15.4552 14.2543 15.689 14.1791 15.8309 14.0289C15.9728 13.8786 16.0438 13.7242 16.0438 13.5656C16.0438 13.3986 15.9645 13.2734 15.8058 13.1899C15.6556 13.1064 15.3885 13.0063 15.0045 12.8894L14.6664 12.7767C13.9568 12.5513 13.3599 12.2549 12.8758 11.8876C12.3999 11.512 12.162 10.9777 12.162 10.2849C12.162 9.70051 12.3165 9.18295 12.6253 8.73217C12.9425 8.28138 13.3683 7.93077 13.9025 7.68034C14.4452 7.4299 15.0378 7.30469 15.6806 7.30469C16.265 7.30469 16.7867 7.40904 17.2458 7.61773C17.7133 7.82643 18.0765 8.12695 18.3352 8.5193C18.594 8.9033 18.7234 9.34573 18.7234 9.8466C18.7234 9.92173 18.7151 10.0428 18.6984 10.2097L18.6858 10.3224C18.6775 10.3809 18.6525 10.4268 18.6107 10.4602C18.5773 10.4936 18.5314 10.5103 18.473 10.5103H16.5947C16.5363 10.5103 16.4904 10.4936 16.457 10.4602C16.4319 10.4268 16.4236 10.3809 16.4319 10.3224V10.3099C16.457 10.1513 16.4278 9.99686 16.3443 9.8466C16.2692 9.69634 16.1439 9.57112 15.9686 9.47095C15.8017 9.37077 15.593 9.32069 15.3425 9.32069C15.0671 9.32069 14.8458 9.3833 14.6789 9.50851C14.5119 9.62538 14.4285 9.78817 14.4285 9.99686C14.4285 10.1889 14.537 10.3516 14.754 10.4852C14.9794 10.6104 15.401 10.7774 16.0187 10.9861C16.0855 11.0111 16.3401 11.0988 16.7825 11.249C17.2333 11.3909 17.609 11.6372 17.9095 11.9878C18.21 12.3301 18.3603 12.7475 18.3603 13.24C18.3603 13.3068 18.3519 13.4153 18.3352 13.5656C18.2267 14.4087 17.8427 15.0723 17.1832 15.5565C16.5238 16.0323 15.6973 16.2703 14.7039 16.2703Z" fill="white"/>
<path d="M12.0574 7.30469C12.1075 7.30469 12.1451 7.32138 12.1701 7.35477C12.2035 7.38817 12.216 7.43408 12.2077 7.49251L12.0073 9.14538C11.999 9.20382 11.9781 9.24973 11.9447 9.28312C11.9113 9.31651 11.8654 9.33321 11.807 9.33321H9.77845C9.73671 9.33321 9.70749 9.35825 9.6908 9.40834L8.90193 15.8821C8.89358 15.9405 8.86854 15.9864 8.8268 16.0198C8.79341 16.0532 8.74749 16.0699 8.68906 16.0699H6.77323C6.7148 16.0699 6.66889 16.0532 6.63549 16.0198C6.61045 15.9864 6.6021 15.9405 6.61045 15.8821L7.41184 9.40834C7.41184 9.35825 7.39097 9.33321 7.34923 9.33321H5.38332C5.32489 9.33321 5.27897 9.31651 5.24558 9.28312C5.22054 9.24973 5.21219 9.20382 5.22054 9.14538L5.42089 7.49251C5.42923 7.43408 5.4501 7.38817 5.48349 7.35477C5.52523 7.32138 5.57532 7.30469 5.63376 7.30469H12.0574Z" fill="white"/>
<path d="M30.52 17V9.20508H32.5957V17H30.52ZM28.2476 9.49707V7.64355H34.8618V9.49707H28.2476ZM36.3825 17.1016C35.9212 17.1016 35.5149 17.0085 35.1637 16.8223C34.8167 16.6361 34.5438 16.3864 34.3449 16.0732C34.1502 15.7601 34.0529 15.4089 34.0529 15.0195C34.0529 14.609 34.1629 14.2451 34.3829 13.9277C34.6072 13.6104 34.9288 13.3607 35.3478 13.1787C35.771 12.9967 36.2788 12.9058 36.8712 12.9058H38.5026V14.1626H37.1124C36.7485 14.1626 36.4692 14.2218 36.2746 14.3403C36.0841 14.4588 35.9889 14.6429 35.9889 14.8926C35.9889 15.0407 36.027 15.1676 36.1032 15.2734C36.1793 15.375 36.2851 15.4554 36.4205 15.5146C36.5602 15.5697 36.7168 15.5972 36.8903 15.5972C37.0511 15.5972 37.2394 15.5654 37.4552 15.502C37.671 15.4385 37.8572 15.3327 38.0138 15.1846C38.1746 15.0365 38.255 14.8376 38.255 14.5879V13.7944L38.1598 13.4961V12.563C38.1598 12.4318 38.1344 12.3133 38.0836 12.2075C38.0371 12.0975 37.9651 12.0044 37.8678 11.9282C37.7705 11.8521 37.652 11.7949 37.5123 11.7568C37.3727 11.7145 37.214 11.6934 37.0363 11.6934C36.8331 11.6934 36.6152 11.7166 36.3825 11.7632C36.1497 11.8055 35.9254 11.8669 35.7096 11.9473C35.4938 12.0234 35.3076 12.1123 35.151 12.2139L34.4845 10.7031C34.6538 10.6058 34.876 10.5085 35.151 10.4111C35.4303 10.3138 35.7477 10.2334 36.1032 10.1699C36.4629 10.1022 36.848 10.0684 37.2584 10.0684C37.8974 10.0684 38.4052 10.1509 38.7819 10.3159C39.1585 10.4767 39.4378 10.6841 39.6198 10.938C39.8017 11.1877 39.9202 11.4564 39.9752 11.7441C40.0345 12.0277 40.0641 12.2922 40.0641 12.5376V14.5942C40.0641 14.827 40.0916 15.0047 40.1466 15.1274C40.2059 15.2459 40.3095 15.3285 40.4577 15.375L40.61 15.4258L39.9054 17.1016L39.6705 17.0254C39.277 16.8942 38.9808 16.7271 38.7819 16.5239C38.583 16.3208 38.4645 16.1177 38.4264 15.9146L38.8707 16.2192H38.0836L38.6105 16.0605C38.4751 16.3314 38.2021 16.5726 37.7916 16.7842C37.3854 16.9958 36.9157 17.1016 36.3825 17.1016ZM42.9431 17.1016C42.5454 17.1016 42.211 17.0148 41.9402 16.8413C41.6736 16.6636 41.4726 16.4308 41.3372 16.1431C41.2018 15.8553 41.1341 15.5379 41.1341 15.1909V7.22461H43.1399V14.8862C43.1399 14.9963 43.1547 15.0915 43.1844 15.1719C43.214 15.248 43.2605 15.3094 43.324 15.356C43.3875 15.3983 43.4763 15.4194 43.5906 15.4194C43.6583 15.4194 43.7133 15.4131 43.7556 15.4004C43.8022 15.3877 43.8403 15.3771 43.8699 15.3687V16.9429C43.7472 16.9894 43.6033 17.0275 43.4383 17.0571C43.2775 17.0868 43.1124 17.1016 42.9431 17.1016ZM46.1967 17.1016C45.7989 17.1016 45.4646 17.0148 45.1938 16.8413C44.9272 16.6636 44.7262 16.4308 44.5907 16.1431C44.4553 15.8553 44.3876 15.5379 44.3876 15.1909V7.22461H46.3935V14.8862C46.3935 14.9963 46.4083 15.0915 46.4379 15.1719C46.4675 15.248 46.5141 15.3094 46.5776 15.356C46.641 15.3983 46.7299 15.4194 46.8442 15.4194C46.9119 15.4194 46.9669 15.4131 47.0092 15.4004C47.0557 15.3877 47.0938 15.3771 47.1235 15.3687V16.9429C47.0007 16.9894 46.8569 17.0275 46.6918 17.0571C46.531 17.0868 46.366 17.1016 46.1967 17.1016ZM48.8155 19.7676C48.5574 19.7676 48.2971 19.7422 48.0347 19.6914C47.7724 19.6449 47.5523 19.592 47.3746 19.5327L48.0665 17.9268C48.1638 17.9733 48.2717 18.0114 48.3902 18.041C48.5087 18.0706 48.6208 18.0854 48.7266 18.0854C48.9382 18.0854 49.1075 18.041 49.2344 17.9521C49.3614 17.8675 49.4566 17.7638 49.5201 17.6411C49.5836 17.5184 49.6301 17.4062 49.6597 17.3047L49.9644 16.27L49.8184 17.3174L46.9048 10.1699H49.0123L50.3008 13.9658L50.6182 14.9624H50.669L50.9546 13.9658L52.148 10.1699H54.2427L51.3609 17.7617C51.2847 17.9564 51.1937 18.1701 51.0879 18.4028C50.9822 18.6356 50.8383 18.8535 50.6563 19.0566C50.4743 19.264 50.2352 19.4333 49.939 19.5645C49.647 19.6999 49.2725 19.7676 48.8155 19.7676ZM56.633 17.1016C56.2268 17.1016 55.8374 17.0317 55.465 16.8921C55.0969 16.7524 54.771 16.5557 54.4875 16.3018C54.204 16.0436 53.9903 15.7432 53.8464 15.4004L55.4206 14.7085C55.5264 14.9074 55.6851 15.0957 55.8967 15.2734C56.1083 15.4512 56.3579 15.54 56.6457 15.54C56.798 15.54 56.9313 15.5146 57.0456 15.4639C57.1599 15.4089 57.2487 15.339 57.3122 15.2544C57.3799 15.1698 57.4138 15.0788 57.4138 14.9814C57.4138 14.8587 57.3651 14.7529 57.2678 14.6641C57.1704 14.5752 57.0456 14.499 56.8933 14.4355C56.7409 14.3721 56.5801 14.3171 56.4108 14.2705C56.2458 14.224 56.0935 14.1816 55.9538 14.1436C55.6322 14.0462 55.3275 13.9129 55.0397 13.7437C54.7562 13.5701 54.5256 13.3501 54.3479 13.0835C54.1701 12.8169 54.0812 12.4932 54.0812 12.1123C54.0812 11.7103 54.1849 11.3569 54.3923 11.0522C54.6039 10.7433 54.8895 10.5021 55.2492 10.3286C55.6132 10.1551 56.0279 10.0684 56.4934 10.0684C57.0731 10.0684 57.5936 10.2017 58.0549 10.4683C58.5204 10.7349 58.8505 11.0882 59.0451 11.5283L57.5026 12.1948C57.4222 12.0594 57.3037 11.9282 57.1472 11.8013C56.9948 11.6743 56.8002 11.6108 56.5632 11.6108C56.3643 11.6108 56.1993 11.6616 56.0681 11.7632C55.9369 11.8647 55.8713 11.9917 55.8713 12.144C55.8713 12.2964 55.9369 12.4191 56.0681 12.5122C56.1993 12.6053 56.3664 12.6857 56.5695 12.7534C56.7727 12.8211 56.9842 12.8867 57.2043 12.9502C57.3736 12.9967 57.5703 13.0645 57.7946 13.1533C58.0189 13.238 58.2368 13.3543 58.4484 13.5024C58.6643 13.6506 58.842 13.841 58.9816 14.0737C59.1255 14.3065 59.1975 14.5921 59.1975 14.9307C59.1975 15.3581 59.079 15.7368 58.842 16.0669C58.6092 16.3927 58.2982 16.6466 57.9089 16.8286C57.5238 17.0106 57.0985 17.1016 56.633 17.1016ZM59.7406 17V10.1699H61.7464V17H59.7406ZM60.7498 9.38916C60.4071 9.38916 60.1172 9.27067 59.8802 9.03369C59.6432 8.79671 59.5247 8.50895 59.5247 8.17041C59.5247 7.8234 59.6432 7.53353 59.8802 7.30078C60.1172 7.0638 60.4071 6.94531 60.7498 6.94531C61.0926 6.94531 61.3804 7.0638 61.6131 7.30078C61.8501 7.53353 61.9686 7.8234 61.9686 8.17041C61.9686 8.50895 61.8501 8.79671 61.6131 9.03369C61.3804 9.27067 61.0926 9.38916 60.7498 9.38916ZM65.584 19.7676C65.0169 19.7676 64.4964 19.6978 64.0224 19.5581C63.5527 19.4227 63.1824 19.283 62.9116 19.1392L63.5718 17.5649C63.8087 17.7088 64.0838 17.8315 64.397 17.9331C64.7143 18.0389 65.036 18.0918 65.3618 18.0918C65.6411 18.0918 65.931 18.0452 66.2314 17.9521C66.5319 17.859 66.7879 17.7109 66.9995 17.5078C67.2111 17.3089 67.3169 17.0465 67.3169 16.7207V16.0605H67.1074L67.4057 15.4131V11.5728L66.917 10.8301H67.3804V10.1636H69.2021V16.6064C69.2021 17.127 69.1133 17.584 68.9355 17.9775C68.7578 18.3711 68.506 18.7012 68.1802 18.9678C67.8585 19.2344 67.4777 19.4333 67.0376 19.5645C66.5975 19.6999 66.1129 19.7676 65.584 19.7676ZM65.3364 16.873C64.9767 16.873 64.6191 16.8053 64.2637 16.6699C63.9082 16.5303 63.5845 16.3208 63.2925 16.0415C63.0047 15.758 62.7741 15.4046 62.6006 14.9814C62.4271 14.5583 62.3403 14.061 62.3403 13.4897C62.3403 12.728 62.4884 12.0954 62.7846 11.5918C63.0851 11.084 63.4702 10.7031 63.9399 10.4492C64.4096 10.1911 64.8984 10.062 65.4062 10.062C65.9944 10.062 66.5086 10.2122 66.9487 10.5127C67.393 10.8132 67.7379 11.2152 67.9834 11.7188C68.2288 12.2181 68.3515 12.7725 68.3515 13.3818C68.3515 14.0124 68.2204 14.5921 67.958 15.1211C67.6956 15.6501 67.338 16.0754 66.8852 16.397C66.4324 16.7144 65.9162 16.873 65.3364 16.873ZM65.8315 15.2417C66.1362 15.2417 66.4049 15.1655 66.6377 15.0132C66.8704 14.8608 67.0545 14.6493 67.1899 14.3784C67.3253 14.1034 67.393 13.786 67.393 13.4263C67.393 13.0623 67.3275 12.7513 67.1963 12.4932C67.0651 12.2308 66.8852 12.0298 66.6567 11.8901C66.4282 11.7505 66.1637 11.6807 65.8633 11.6807C65.5628 11.6807 65.2941 11.7526 65.0571 11.8965C64.8201 12.0361 64.6339 12.2371 64.4985 12.4995C64.3673 12.7619 64.3017 13.0708 64.3017 13.4263C64.3017 13.7817 64.3673 14.097 64.4985 14.3721C64.6297 14.6429 64.8096 14.8566 65.0381 15.0132C65.2666 15.1655 65.5311 15.2417 65.8315 15.2417ZM70.088 17V7.22461H72.0939V10.7983H72.462L71.7828 11.5029C71.859 11.1813 72.0113 10.9147 72.2399 10.7031C72.4726 10.4915 72.7456 10.3328 73.0587 10.2271C73.3761 10.1213 73.7062 10.0684 74.0489 10.0684C74.5525 10.0684 74.9757 10.1742 75.3185 10.3857C75.6613 10.5931 75.9194 10.8809 76.0929 11.249C76.2706 11.6172 76.3595 12.0425 76.3595 12.5249V17H74.3536V12.9629C74.3536 12.5482 74.2542 12.2393 74.0553 12.0361C73.8606 11.833 73.5983 11.7314 73.2682 11.7314C73.0481 11.7314 72.8492 11.7801 72.6715 11.8774C72.498 11.9705 72.3584 12.1102 72.2526 12.2964C72.1468 12.4784 72.0939 12.7069 72.0939 12.9819V17H70.088ZM80.2542 17.1016C79.412 17.1016 78.7857 16.8688 78.3753 16.4033C77.9648 15.9336 77.7595 15.3327 77.7595 14.6006V8.20215H79.7654V14.5498C79.7654 14.8418 79.8352 15.0534 79.9749 15.1846C80.1187 15.3115 80.2944 15.375 80.5017 15.375C80.5991 15.375 80.6943 15.3623 80.7874 15.3369C80.8805 15.3115 80.963 15.2798 81.0349 15.2417L81.6824 16.8223C81.492 16.9154 81.2698 16.9852 81.0159 17.0317C80.7662 17.0783 80.5123 17.1016 80.2542 17.1016ZM76.617 11.833V10.1699H81.346V11.833H76.617Z" fill="black"/>
</g>
<defs>
<clipPath id="clip0_6255_2">
<rect width="82" height="24" fill="white"/>
</clipPath>
</defs>
</svg>
